<mxfile host="app.diagrams.net" modified="2021-04-30T04:01:27.152Z" agent="5.0 (Windows NT 10.0; Win64; x64) AppleWebKit/537.36 (KHTML, like Gecko) Chrome/90.0.4430.93 Safari/537.36" etag="OJYAFuESVMWhQHoWZrnX" version="14.6.9" type="github">
  <diagram id="oWuRDQPUcLh2FSic-uNk" name="Page-1">
    <mxGraphModel dx="2062" dy="1122" grid="1" gridSize="10" guides="1" tooltips="1" connect="1" arrows="1" fold="1" page="1" pageScale="1" pageWidth="827" pageHeight="1169" math="0" shadow="0">
      <root>
        <mxCell id="0" />
        <mxCell id="1" parent="0" />
        <mxCell id="3WDMfEi2wOY3E3-ZAiuZ-9" value="" style="edgeStyle=orthogonalEdgeStyle;rounded=0;orthogonalLoop=1;jettySize=auto;html=1;exitX=1;exitY=0.5;exitDx=0;exitDy=0;exitPerimeter=0;entryX=0;entryY=0.5;entryDx=0;entryDy=0;fontStyle=1" edge="1" parent="1" source="3WDMfEi2wOY3E3-ZAiuZ-2" target="3WDMfEi2wOY3E3-ZAiuZ-8">
          <mxGeometry relative="1" as="geometry">
            <mxPoint x="350" y="117.5" as="targetPoint" />
            <Array as="points">
              <mxPoint x="320" y="142.5" />
            </Array>
          </mxGeometry>
        </mxCell>
        <mxCell id="3WDMfEi2wOY3E3-ZAiuZ-2" value="流入平台任务" style="strokeWidth=2;html=1;shape=mxgraph.flowchart.delay;whiteSpace=wrap;fontStyle=1" vertex="1" parent="1">
          <mxGeometry x="180" y="117.5" width="100" height="50" as="geometry" />
        </mxCell>
        <mxCell id="3WDMfEi2wOY3E3-ZAiuZ-12" value="" style="edgeStyle=orthogonalEdgeStyle;rounded=0;orthogonalLoop=1;jettySize=auto;html=1;entryX=0.5;entryY=0;entryDx=0;entryDy=0;fontStyle=1" edge="1" parent="1" source="3WDMfEi2wOY3E3-ZAiuZ-8" target="3WDMfEi2wOY3E3-ZAiuZ-5">
          <mxGeometry relative="1" as="geometry">
            <mxPoint x="430" y="242.5" as="targetPoint" />
          </mxGeometry>
        </mxCell>
        <mxCell id="3WDMfEi2wOY3E3-ZAiuZ-20" value="" style="edgeStyle=orthogonalEdgeStyle;rounded=0;orthogonalLoop=1;jettySize=auto;html=1;fontStyle=1" edge="1" parent="1" source="3WDMfEi2wOY3E3-ZAiuZ-8" target="3WDMfEi2wOY3E3-ZAiuZ-19">
          <mxGeometry relative="1" as="geometry" />
        </mxCell>
        <mxCell id="3WDMfEi2wOY3E3-ZAiuZ-8" value="自动化处理" style="shape=step;perimeter=stepPerimeter;whiteSpace=wrap;html=1;fixedSize=1;strokeWidth=2;fontStyle=1" vertex="1" parent="1">
          <mxGeometry x="370" y="117.5" width="120" height="50" as="geometry" />
        </mxCell>
        <mxCell id="3WDMfEi2wOY3E3-ZAiuZ-22" value="" style="edgeStyle=orthogonalEdgeStyle;rounded=0;orthogonalLoop=1;jettySize=auto;html=1;entryX=0.5;entryY=0;entryDx=0;entryDy=0;" edge="1" parent="1" source="3WDMfEi2wOY3E3-ZAiuZ-5" target="3WDMfEi2wOY3E3-ZAiuZ-24">
          <mxGeometry relative="1" as="geometry">
            <mxPoint x="370" y="317.5" as="targetPoint" />
          </mxGeometry>
        </mxCell>
        <mxCell id="3WDMfEi2wOY3E3-ZAiuZ-5" value="人工处理" style="shape=step;perimeter=stepPerimeter;whiteSpace=wrap;html=1;fixedSize=1;strokeWidth=2;fontStyle=1" vertex="1" parent="1">
          <mxGeometry x="370" y="197.5" width="120" height="50" as="geometry" />
        </mxCell>
        <mxCell id="3WDMfEi2wOY3E3-ZAiuZ-19" value="自动化处理完成量" style="shape=cylinder;whiteSpace=wrap;html=1;boundedLbl=1;backgroundOutline=1;strokeWidth=2;fontStyle=1" vertex="1" parent="1">
          <mxGeometry x="550" y="110" width="100" height="65" as="geometry" />
        </mxCell>
        <mxCell id="3WDMfEi2wOY3E3-ZAiuZ-23" value="&lt;font style=&quot;font-size: 15px&quot;&gt;数据输入&lt;/font&gt;" style="text;html=1;strokeColor=#9673a6;fillColor=#e1d5e7;align=center;verticalAlign=middle;whiteSpace=wrap;rounded=0;" vertex="1" parent="1">
          <mxGeometry x="340" y="350" width="75" height="20" as="geometry" />
        </mxCell>
        <mxCell id="3WDMfEi2wOY3E3-ZAiuZ-30" value="" style="edgeStyle=orthogonalEdgeStyle;rounded=0;orthogonalLoop=1;jettySize=auto;html=1;fillColor=#fff2cc;strokeColor=#d6b656;" edge="1" parent="1" source="3WDMfEi2wOY3E3-ZAiuZ-24" target="3WDMfEi2wOY3E3-ZAiuZ-29">
          <mxGeometry relative="1" as="geometry" />
        </mxCell>
        <mxCell id="3WDMfEi2wOY3E3-ZAiuZ-40" style="edgeStyle=orthogonalEdgeStyle;rounded=0;orthogonalLoop=1;jettySize=auto;html=1;exitX=0.75;exitY=0;exitDx=0;exitDy=0;entryX=0.5;entryY=0;entryDx=0;entryDy=0;dashed=1;dashPattern=1 2;" edge="1" parent="1" source="3WDMfEi2wOY3E3-ZAiuZ-24" target="3WDMfEi2wOY3E3-ZAiuZ-33">
          <mxGeometry relative="1" as="geometry">
            <Array as="points">
              <mxPoint x="453" y="380" />
              <mxPoint x="795" y="380" />
            </Array>
          </mxGeometry>
        </mxCell>
        <mxCell id="3WDMfEi2wOY3E3-ZAiuZ-41" value="二次制作" style="edgeLabel;html=1;align=center;verticalAlign=middle;resizable=0;points=[];fontStyle=1" vertex="1" connectable="0" parent="3WDMfEi2wOY3E3-ZAiuZ-40">
          <mxGeometry x="0.0684" relative="1" as="geometry">
            <mxPoint as="offset" />
          </mxGeometry>
        </mxCell>
        <mxCell id="3WDMfEi2wOY3E3-ZAiuZ-24" value="&lt;b&gt;制作库存&lt;br&gt;100&lt;/b&gt;" style="rounded=1;whiteSpace=wrap;html=1;fillColor=#fff2cc;strokeColor=#d6b656;" vertex="1" parent="1">
          <mxGeometry x="385" y="407.5" width="90" height="40" as="geometry" />
        </mxCell>
        <mxCell id="3WDMfEi2wOY3E3-ZAiuZ-32" value="" style="edgeStyle=orthogonalEdgeStyle;rounded=0;orthogonalLoop=1;jettySize=auto;html=1;fillColor=#fff2cc;strokeColor=#d6b656;" edge="1" parent="1" source="3WDMfEi2wOY3E3-ZAiuZ-29" target="3WDMfEi2wOY3E3-ZAiuZ-31">
          <mxGeometry relative="1" as="geometry" />
        </mxCell>
        <mxCell id="3WDMfEi2wOY3E3-ZAiuZ-29" value="&lt;b&gt;组批&lt;br&gt;110&lt;/b&gt;" style="rounded=1;whiteSpace=wrap;html=1;fillColor=#fff2cc;strokeColor=#d6b656;" vertex="1" parent="1">
          <mxGeometry x="500" y="407.5" width="90" height="40" as="geometry" />
        </mxCell>
        <mxCell id="3WDMfEi2wOY3E3-ZAiuZ-34" value="" style="edgeStyle=orthogonalEdgeStyle;rounded=0;orthogonalLoop=1;jettySize=auto;html=1;fillColor=#fff2cc;strokeColor=#d6b656;" edge="1" parent="1" source="3WDMfEi2wOY3E3-ZAiuZ-31" target="3WDMfEi2wOY3E3-ZAiuZ-33">
          <mxGeometry relative="1" as="geometry" />
        </mxCell>
        <mxCell id="3WDMfEi2wOY3E3-ZAiuZ-31" value="&lt;b&gt;领取（赋值人名）&lt;br&gt;120&lt;/b&gt;" style="rounded=1;whiteSpace=wrap;html=1;fillColor=#fff2cc;strokeColor=#d6b656;" vertex="1" parent="1">
          <mxGeometry x="620" y="407.5" width="110" height="40" as="geometry" />
        </mxCell>
        <mxCell id="3WDMfEi2wOY3E3-ZAiuZ-37" value="" style="edgeStyle=orthogonalEdgeStyle;rounded=0;orthogonalLoop=1;jettySize=auto;html=1;fillColor=#fff2cc;strokeColor=#d6b656;" edge="1" parent="1" source="3WDMfEi2wOY3E3-ZAiuZ-33" target="3WDMfEi2wOY3E3-ZAiuZ-36">
          <mxGeometry relative="1" as="geometry" />
        </mxCell>
        <mxCell id="3WDMfEi2wOY3E3-ZAiuZ-33" value="&lt;b&gt;抽中&lt;br&gt;130&lt;/b&gt;" style="rounded=1;whiteSpace=wrap;html=1;fillColor=#fff2cc;strokeColor=#d6b656;" vertex="1" parent="1">
          <mxGeometry x="760" y="407.5" width="70" height="40" as="geometry" />
        </mxCell>
        <mxCell id="3WDMfEi2wOY3E3-ZAiuZ-42" value="" style="edgeStyle=orthogonalEdgeStyle;rounded=0;orthogonalLoop=1;jettySize=auto;html=1;entryX=0;entryY=0.5;entryDx=0;entryDy=0;exitX=1;exitY=0.5;exitDx=0;exitDy=0;strokeWidth=2;" edge="1" parent="1" source="3WDMfEi2wOY3E3-ZAiuZ-36" target="3WDMfEi2wOY3E3-ZAiuZ-43">
          <mxGeometry relative="1" as="geometry">
            <mxPoint x="390" y="540" as="targetPoint" />
            <Array as="points">
              <mxPoint x="980" y="428" />
              <mxPoint x="980" y="480" />
              <mxPoint x="350" y="480" />
              <mxPoint x="350" y="580" />
            </Array>
          </mxGeometry>
        </mxCell>
        <mxCell id="3WDMfEi2wOY3E3-ZAiuZ-36" value="&lt;b&gt;制作完成&lt;br&gt;140&lt;/b&gt;" style="rounded=1;whiteSpace=wrap;html=1;fillColor=#fff2cc;strokeColor=#d6b656;" vertex="1" parent="1">
          <mxGeometry x="850" y="407.5" width="80" height="40" as="geometry" />
        </mxCell>
        <mxCell id="3WDMfEi2wOY3E3-ZAiuZ-38" value="&lt;b&gt;制作暂停&lt;br&gt;109&lt;/b&gt;" style="rounded=1;whiteSpace=wrap;html=1;fillColor=#fff2cc;strokeColor=#d6b656;" vertex="1" parent="1">
          <mxGeometry x="1190" y="407.5" width="70" height="40" as="geometry" />
        </mxCell>
        <mxCell id="3WDMfEi2wOY3E3-ZAiuZ-39" value="&lt;b&gt;制作废弃&lt;br&gt;-100&lt;/b&gt;" style="rounded=1;whiteSpace=wrap;html=1;fillColor=#fff2cc;strokeColor=#d6b656;" vertex="1" parent="1">
          <mxGeometry x="1270" y="407.5" width="70" height="40" as="geometry" />
        </mxCell>
        <mxCell id="3WDMfEi2wOY3E3-ZAiuZ-45" value="" style="edgeStyle=orthogonalEdgeStyle;rounded=0;orthogonalLoop=1;jettySize=auto;html=1;fillColor=#d5e8d4;strokeColor=#82b366;" edge="1" parent="1" source="3WDMfEi2wOY3E3-ZAiuZ-43" target="3WDMfEi2wOY3E3-ZAiuZ-44">
          <mxGeometry relative="1" as="geometry" />
        </mxCell>
        <mxCell id="3WDMfEi2wOY3E3-ZAiuZ-43" value="&lt;b&gt;质检库存&lt;br&gt;200&lt;/b&gt;" style="rounded=1;whiteSpace=wrap;html=1;fillColor=#d5e8d4;strokeColor=#82b366;" vertex="1" parent="1">
          <mxGeometry x="385" y="560" width="90" height="40" as="geometry" />
        </mxCell>
        <mxCell id="3WDMfEi2wOY3E3-ZAiuZ-47" value="" style="edgeStyle=orthogonalEdgeStyle;rounded=0;orthogonalLoop=1;jettySize=auto;html=1;fillColor=#d5e8d4;strokeColor=#82b366;" edge="1" parent="1" source="3WDMfEi2wOY3E3-ZAiuZ-44" target="3WDMfEi2wOY3E3-ZAiuZ-46">
          <mxGeometry relative="1" as="geometry" />
        </mxCell>
        <mxCell id="3WDMfEi2wOY3E3-ZAiuZ-44" value="&lt;b&gt;组批&lt;br&gt;210&lt;/b&gt;" style="rounded=1;whiteSpace=wrap;html=1;fillColor=#d5e8d4;strokeColor=#82b366;" vertex="1" parent="1">
          <mxGeometry x="500" y="560" width="90" height="40" as="geometry" />
        </mxCell>
        <mxCell id="3WDMfEi2wOY3E3-ZAiuZ-49" value="" style="edgeStyle=orthogonalEdgeStyle;rounded=0;orthogonalLoop=1;jettySize=auto;html=1;fillColor=#d5e8d4;strokeColor=#82b366;" edge="1" parent="1" source="3WDMfEi2wOY3E3-ZAiuZ-46" target="3WDMfEi2wOY3E3-ZAiuZ-48">
          <mxGeometry relative="1" as="geometry" />
        </mxCell>
        <mxCell id="3WDMfEi2wOY3E3-ZAiuZ-59" style="edgeStyle=orthogonalEdgeStyle;rounded=0;orthogonalLoop=1;jettySize=auto;html=1;exitX=1;exitY=0.5;exitDx=0;exitDy=0;entryX=0;entryY=0.5;entryDx=0;entryDy=0;fillColor=#d5e8d4;strokeColor=#82b366;" edge="1" parent="1" source="3WDMfEi2wOY3E3-ZAiuZ-46" target="3WDMfEi2wOY3E3-ZAiuZ-56">
          <mxGeometry relative="1" as="geometry" />
        </mxCell>
        <mxCell id="3WDMfEi2wOY3E3-ZAiuZ-46" value="&lt;b&gt;领取（赋值人名）&lt;br&gt;220&lt;br&gt;&lt;/b&gt;" style="rounded=1;whiteSpace=wrap;html=1;fillColor=#d5e8d4;strokeColor=#82b366;" vertex="1" parent="1">
          <mxGeometry x="620" y="560" width="110" height="40" as="geometry" />
        </mxCell>
        <mxCell id="3WDMfEi2wOY3E3-ZAiuZ-51" value="" style="edgeStyle=orthogonalEdgeStyle;rounded=0;orthogonalLoop=1;jettySize=auto;html=1;fillColor=#d5e8d4;strokeColor=#82b366;" edge="1" parent="1" source="3WDMfEi2wOY3E3-ZAiuZ-48" target="3WDMfEi2wOY3E3-ZAiuZ-50">
          <mxGeometry relative="1" as="geometry" />
        </mxCell>
        <mxCell id="3WDMfEi2wOY3E3-ZAiuZ-53" style="edgeStyle=orthogonalEdgeStyle;rounded=0;orthogonalLoop=1;jettySize=auto;html=1;exitX=1;exitY=0.5;exitDx=0;exitDy=0;entryX=0;entryY=0.5;entryDx=0;entryDy=0;fillColor=#d5e8d4;strokeColor=#82b366;" edge="1" parent="1" source="3WDMfEi2wOY3E3-ZAiuZ-48" target="3WDMfEi2wOY3E3-ZAiuZ-52">
          <mxGeometry relative="1" as="geometry">
            <Array as="points">
              <mxPoint x="885" y="580" />
              <mxPoint x="885" y="650" />
            </Array>
          </mxGeometry>
        </mxCell>
        <mxCell id="3WDMfEi2wOY3E3-ZAiuZ-48" value="&lt;b&gt;抽中&lt;br&gt;230&lt;br&gt;&lt;/b&gt;" style="rounded=1;whiteSpace=wrap;html=1;fillColor=#d5e8d4;strokeColor=#82b366;" vertex="1" parent="1">
          <mxGeometry x="810" y="560" width="60" height="40" as="geometry" />
        </mxCell>
        <mxCell id="3WDMfEi2wOY3E3-ZAiuZ-64" style="edgeStyle=orthogonalEdgeStyle;rounded=0;orthogonalLoop=1;jettySize=auto;html=1;exitX=1;exitY=0.5;exitDx=0;exitDy=0;strokeColor=#000000;entryX=0;entryY=0.5;entryDx=0;entryDy=0;dashed=1;dashPattern=1 2;" edge="1" parent="1" source="3WDMfEi2wOY3E3-ZAiuZ-52" target="3WDMfEi2wOY3E3-ZAiuZ-24">
          <mxGeometry relative="1" as="geometry">
            <mxPoint x="1070" y="830" as="targetPoint" />
            <Array as="points">
              <mxPoint x="1070" y="650" />
              <mxPoint x="1070" y="850" />
              <mxPoint x="300" y="850" />
              <mxPoint x="300" y="428" />
            </Array>
          </mxGeometry>
        </mxCell>
        <mxCell id="3WDMfEi2wOY3E3-ZAiuZ-69" style="edgeStyle=orthogonalEdgeStyle;rounded=0;orthogonalLoop=1;jettySize=auto;html=1;strokeColor=#000000;strokeWidth=2;entryX=0;entryY=0.5;entryDx=0;entryDy=0;" edge="1" parent="1" source="3WDMfEi2wOY3E3-ZAiuZ-50" target="3WDMfEi2wOY3E3-ZAiuZ-71">
          <mxGeometry relative="1" as="geometry">
            <mxPoint x="390" y="1030" as="targetPoint" />
            <Array as="points">
              <mxPoint x="1120" y="580" />
              <mxPoint x="1120" y="940" />
              <mxPoint x="340" y="940" />
              <mxPoint x="340" y="1030" />
            </Array>
          </mxGeometry>
        </mxCell>
        <mxCell id="3WDMfEi2wOY3E3-ZAiuZ-50" value="&lt;b&gt;质检合格（抽中）&lt;br&gt;240&lt;br&gt;&lt;/b&gt;" style="rounded=1;whiteSpace=wrap;html=1;fillColor=#d5e8d4;strokeColor=#82b366;" vertex="1" parent="1">
          <mxGeometry x="915" y="560" width="125" height="40" as="geometry" />
        </mxCell>
        <mxCell id="3WDMfEi2wOY3E3-ZAiuZ-52" value="&lt;b&gt;质检不合格（抽中）&lt;br&gt;250&lt;br&gt;&lt;/b&gt;" style="rounded=1;whiteSpace=wrap;html=1;fillColor=#d5e8d4;strokeColor=#82b366;" vertex="1" parent="1">
          <mxGeometry x="915" y="630" width="125" height="40" as="geometry" />
        </mxCell>
        <mxCell id="3WDMfEi2wOY3E3-ZAiuZ-54" value="" style="edgeStyle=orthogonalEdgeStyle;rounded=0;orthogonalLoop=1;jettySize=auto;html=1;fillColor=#d5e8d4;strokeColor=#82b366;" edge="1" parent="1" source="3WDMfEi2wOY3E3-ZAiuZ-56" target="3WDMfEi2wOY3E3-ZAiuZ-57">
          <mxGeometry relative="1" as="geometry" />
        </mxCell>
        <mxCell id="3WDMfEi2wOY3E3-ZAiuZ-55" style="edgeStyle=orthogonalEdgeStyle;rounded=0;orthogonalLoop=1;jettySize=auto;html=1;exitX=1;exitY=0.5;exitDx=0;exitDy=0;entryX=0;entryY=0.5;entryDx=0;entryDy=0;fillColor=#d5e8d4;strokeColor=#82b366;" edge="1" parent="1" source="3WDMfEi2wOY3E3-ZAiuZ-56" target="3WDMfEi2wOY3E3-ZAiuZ-58">
          <mxGeometry relative="1" as="geometry">
            <Array as="points">
              <mxPoint x="885" y="720" />
              <mxPoint x="885" y="790" />
            </Array>
          </mxGeometry>
        </mxCell>
        <mxCell id="3WDMfEi2wOY3E3-ZAiuZ-56" value="&lt;b&gt;未抽中&lt;br&gt;231&lt;br&gt;&lt;/b&gt;" style="rounded=1;whiteSpace=wrap;html=1;fillColor=#d5e8d4;strokeColor=#82b366;" vertex="1" parent="1">
          <mxGeometry x="810" y="700" width="60" height="40" as="geometry" />
        </mxCell>
        <mxCell id="3WDMfEi2wOY3E3-ZAiuZ-57" value="&lt;b&gt;质检合格（未抽中）&lt;br&gt;241&lt;br&gt;&lt;/b&gt;" style="rounded=1;whiteSpace=wrap;html=1;fillColor=#d5e8d4;strokeColor=#82b366;" vertex="1" parent="1">
          <mxGeometry x="915" y="700" width="125" height="40" as="geometry" />
        </mxCell>
        <mxCell id="3WDMfEi2wOY3E3-ZAiuZ-58" value="&lt;b&gt;质检不合格（未抽中）&lt;br&gt;251&lt;br&gt;&lt;/b&gt;" style="rounded=1;whiteSpace=wrap;html=1;fillColor=#d5e8d4;strokeColor=#82b366;" vertex="1" parent="1">
          <mxGeometry x="915" y="770" width="125" height="40" as="geometry" />
        </mxCell>
        <mxCell id="3WDMfEi2wOY3E3-ZAiuZ-60" value="&lt;b&gt;质检暂停&lt;br&gt;209&lt;/b&gt;" style="rounded=1;whiteSpace=wrap;html=1;fillColor=#d5e8d4;strokeColor=#82b366;" vertex="1" parent="1">
          <mxGeometry x="1190" y="560" width="70" height="40" as="geometry" />
        </mxCell>
        <mxCell id="3WDMfEi2wOY3E3-ZAiuZ-61" value="&lt;b&gt;质检废弃&lt;br&gt;-200&lt;/b&gt;" style="rounded=1;whiteSpace=wrap;html=1;fillColor=#d5e8d4;strokeColor=#82b366;" vertex="1" parent="1">
          <mxGeometry x="1270" y="560" width="70" height="40" as="geometry" />
        </mxCell>
        <mxCell id="3WDMfEi2wOY3E3-ZAiuZ-62" style="edgeStyle=orthogonalEdgeStyle;rounded=0;orthogonalLoop=1;jettySize=auto;html=1;exitX=0.75;exitY=0;exitDx=0;exitDy=0;entryX=0.5;entryY=0;entryDx=0;entryDy=0;dashed=1;dashPattern=1 2;" edge="1" parent="1" target="3WDMfEi2wOY3E3-ZAiuZ-48">
          <mxGeometry relative="1" as="geometry">
            <mxPoint x="425" y="560" as="sourcePoint" />
            <mxPoint x="767.5" y="560" as="targetPoint" />
            <Array as="points">
              <mxPoint x="425" y="533" />
              <mxPoint x="840" y="533" />
            </Array>
          </mxGeometry>
        </mxCell>
        <mxCell id="3WDMfEi2wOY3E3-ZAiuZ-63" value="二次质检" style="edgeLabel;html=1;align=center;verticalAlign=middle;resizable=0;points=[];fontStyle=1" vertex="1" connectable="0" parent="3WDMfEi2wOY3E3-ZAiuZ-62">
          <mxGeometry x="0.0684" relative="1" as="geometry">
            <mxPoint as="offset" />
          </mxGeometry>
        </mxCell>
        <mxCell id="3WDMfEi2wOY3E3-ZAiuZ-68" value="" style="endArrow=none;dashed=1;html=1;dashPattern=1 2;strokeColor=#000000;exitX=1;exitY=0.5;exitDx=0;exitDy=0;" edge="1" parent="1">
          <mxGeometry width="50" height="50" relative="1" as="geometry">
            <mxPoint x="1041" y="790" as="sourcePoint" />
            <mxPoint x="1071" y="790" as="targetPoint" />
          </mxGeometry>
        </mxCell>
        <mxCell id="3WDMfEi2wOY3E3-ZAiuZ-70" value="" style="edgeStyle=orthogonalEdgeStyle;rounded=0;orthogonalLoop=1;jettySize=auto;html=1;fillColor=#f8cecc;strokeColor=#b85450;" edge="1" parent="1" source="3WDMfEi2wOY3E3-ZAiuZ-71" target="3WDMfEi2wOY3E3-ZAiuZ-73">
          <mxGeometry relative="1" as="geometry" />
        </mxCell>
        <mxCell id="3WDMfEi2wOY3E3-ZAiuZ-71" value="&lt;b&gt;验收库存&lt;br&gt;300&lt;/b&gt;" style="rounded=1;whiteSpace=wrap;html=1;fillColor=#f8cecc;strokeColor=#b85450;" vertex="1" parent="1">
          <mxGeometry x="400" y="977" width="90" height="40" as="geometry" />
        </mxCell>
        <mxCell id="3WDMfEi2wOY3E3-ZAiuZ-72" value="" style="edgeStyle=orthogonalEdgeStyle;rounded=0;orthogonalLoop=1;jettySize=auto;html=1;fillColor=#f8cecc;strokeColor=#b85450;" edge="1" parent="1" source="3WDMfEi2wOY3E3-ZAiuZ-73" target="3WDMfEi2wOY3E3-ZAiuZ-76">
          <mxGeometry relative="1" as="geometry" />
        </mxCell>
        <mxCell id="3WDMfEi2wOY3E3-ZAiuZ-73" value="&lt;b&gt;组批&lt;br&gt;310&lt;/b&gt;" style="rounded=1;whiteSpace=wrap;html=1;fillColor=#f8cecc;strokeColor=#b85450;" vertex="1" parent="1">
          <mxGeometry x="515" y="977" width="90" height="40" as="geometry" />
        </mxCell>
        <mxCell id="3WDMfEi2wOY3E3-ZAiuZ-74" value="" style="edgeStyle=orthogonalEdgeStyle;rounded=0;orthogonalLoop=1;jettySize=auto;html=1;fillColor=#f8cecc;strokeColor=#b85450;" edge="1" parent="1" source="3WDMfEi2wOY3E3-ZAiuZ-76" target="3WDMfEi2wOY3E3-ZAiuZ-79">
          <mxGeometry relative="1" as="geometry" />
        </mxCell>
        <mxCell id="3WDMfEi2wOY3E3-ZAiuZ-75" style="edgeStyle=orthogonalEdgeStyle;rounded=0;orthogonalLoop=1;jettySize=auto;html=1;exitX=1;exitY=0.5;exitDx=0;exitDy=0;entryX=0;entryY=0.5;entryDx=0;entryDy=0;fillColor=#f8cecc;strokeColor=#b85450;" edge="1" parent="1" source="3WDMfEi2wOY3E3-ZAiuZ-76" target="3WDMfEi2wOY3E3-ZAiuZ-84">
          <mxGeometry relative="1" as="geometry" />
        </mxCell>
        <mxCell id="3WDMfEi2wOY3E3-ZAiuZ-76" value="&lt;b&gt;领取（赋值人名）&lt;br&gt;320&lt;br&gt;&lt;/b&gt;" style="rounded=1;whiteSpace=wrap;html=1;fillColor=#f8cecc;strokeColor=#b85450;" vertex="1" parent="1">
          <mxGeometry x="635" y="977" width="110" height="40" as="geometry" />
        </mxCell>
        <mxCell id="3WDMfEi2wOY3E3-ZAiuZ-77" value="" style="edgeStyle=orthogonalEdgeStyle;rounded=0;orthogonalLoop=1;jettySize=auto;html=1;fillColor=#f8cecc;strokeColor=#b85450;" edge="1" parent="1" source="3WDMfEi2wOY3E3-ZAiuZ-79" target="3WDMfEi2wOY3E3-ZAiuZ-80">
          <mxGeometry relative="1" as="geometry" />
        </mxCell>
        <mxCell id="3WDMfEi2wOY3E3-ZAiuZ-78" style="edgeStyle=orthogonalEdgeStyle;rounded=0;orthogonalLoop=1;jettySize=auto;html=1;exitX=1;exitY=0.5;exitDx=0;exitDy=0;entryX=0;entryY=0.5;entryDx=0;entryDy=0;fillColor=#f8cecc;strokeColor=#b85450;" edge="1" parent="1" source="3WDMfEi2wOY3E3-ZAiuZ-79" target="3WDMfEi2wOY3E3-ZAiuZ-81">
          <mxGeometry relative="1" as="geometry">
            <Array as="points">
              <mxPoint x="900" y="997" />
              <mxPoint x="900" y="1067" />
            </Array>
          </mxGeometry>
        </mxCell>
        <mxCell id="3WDMfEi2wOY3E3-ZAiuZ-79" value="&lt;b&gt;抽中&lt;br&gt;330&lt;br&gt;&lt;/b&gt;" style="rounded=1;whiteSpace=wrap;html=1;fillColor=#f8cecc;strokeColor=#b85450;" vertex="1" parent="1">
          <mxGeometry x="825" y="977" width="60" height="40" as="geometry" />
        </mxCell>
        <mxCell id="3WDMfEi2wOY3E3-ZAiuZ-80" value="&lt;b&gt;质检合格（抽中）&lt;br&gt;340&lt;br&gt;&lt;/b&gt;" style="rounded=1;whiteSpace=wrap;html=1;fillColor=#f8cecc;strokeColor=#b85450;" vertex="1" parent="1">
          <mxGeometry x="930" y="977" width="125" height="40" as="geometry" />
        </mxCell>
        <mxCell id="3WDMfEi2wOY3E3-ZAiuZ-81" value="&lt;b&gt;质检不合格（抽中）&lt;br&gt;350&lt;br&gt;&lt;/b&gt;" style="rounded=1;whiteSpace=wrap;html=1;fillColor=#f8cecc;strokeColor=#b85450;" vertex="1" parent="1">
          <mxGeometry x="930" y="1047" width="125" height="40" as="geometry" />
        </mxCell>
        <mxCell id="3WDMfEi2wOY3E3-ZAiuZ-82" value="" style="edgeStyle=orthogonalEdgeStyle;rounded=0;orthogonalLoop=1;jettySize=auto;html=1;fillColor=#f8cecc;strokeColor=#b85450;" edge="1" parent="1" source="3WDMfEi2wOY3E3-ZAiuZ-84" target="3WDMfEi2wOY3E3-ZAiuZ-85">
          <mxGeometry relative="1" as="geometry" />
        </mxCell>
        <mxCell id="3WDMfEi2wOY3E3-ZAiuZ-83" style="edgeStyle=orthogonalEdgeStyle;rounded=0;orthogonalLoop=1;jettySize=auto;html=1;exitX=1;exitY=0.5;exitDx=0;exitDy=0;entryX=0;entryY=0.5;entryDx=0;entryDy=0;fillColor=#f8cecc;strokeColor=#b85450;" edge="1" parent="1" source="3WDMfEi2wOY3E3-ZAiuZ-84">
          <mxGeometry relative="1" as="geometry">
            <Array as="points">
              <mxPoint x="900" y="1137" />
              <mxPoint x="900" y="1207" />
            </Array>
            <mxPoint x="930" y="1207" as="targetPoint" />
          </mxGeometry>
        </mxCell>
        <mxCell id="3WDMfEi2wOY3E3-ZAiuZ-84" value="&lt;b&gt;未抽中&lt;br&gt;331&lt;br&gt;&lt;/b&gt;" style="rounded=1;whiteSpace=wrap;html=1;fillColor=#f8cecc;strokeColor=#b85450;" vertex="1" parent="1">
          <mxGeometry x="825" y="1117" width="60" height="40" as="geometry" />
        </mxCell>
        <mxCell id="3WDMfEi2wOY3E3-ZAiuZ-85" value="&lt;b&gt;质检合格（未抽中）&lt;br&gt;341&lt;br&gt;&lt;/b&gt;" style="rounded=1;whiteSpace=wrap;html=1;fillColor=#f8cecc;strokeColor=#b85450;" vertex="1" parent="1">
          <mxGeometry x="930" y="1117" width="125" height="40" as="geometry" />
        </mxCell>
        <mxCell id="3WDMfEi2wOY3E3-ZAiuZ-86" value="&lt;b&gt;质检不合格（未抽中）&lt;br&gt;351&lt;br&gt;&lt;/b&gt;" style="rounded=1;whiteSpace=wrap;html=1;fillColor=#f8cecc;strokeColor=#b85450;" vertex="1" parent="1">
          <mxGeometry x="930" y="1180" width="125" height="40" as="geometry" />
        </mxCell>
        <mxCell id="3WDMfEi2wOY3E3-ZAiuZ-87" style="edgeStyle=orthogonalEdgeStyle;rounded=0;orthogonalLoop=1;jettySize=auto;html=1;exitX=0.75;exitY=0;exitDx=0;exitDy=0;entryX=0.5;entryY=0;entryDx=0;entryDy=0;dashed=1;dashPattern=1 2;" edge="1" parent="1" target="3WDMfEi2wOY3E3-ZAiuZ-79">
          <mxGeometry relative="1" as="geometry">
            <mxPoint x="440" y="977" as="sourcePoint" />
            <mxPoint x="782.5" y="977" as="targetPoint" />
            <Array as="points">
              <mxPoint x="440" y="950" />
              <mxPoint x="855" y="950" />
            </Array>
          </mxGeometry>
        </mxCell>
        <mxCell id="3WDMfEi2wOY3E3-ZAiuZ-88" value="二次验收" style="edgeLabel;html=1;align=center;verticalAlign=middle;resizable=0;points=[];fontStyle=1" vertex="1" connectable="0" parent="3WDMfEi2wOY3E3-ZAiuZ-87">
          <mxGeometry x="0.0684" relative="1" as="geometry">
            <mxPoint as="offset" />
          </mxGeometry>
        </mxCell>
        <mxCell id="3WDMfEi2wOY3E3-ZAiuZ-90" style="edgeStyle=orthogonalEdgeStyle;rounded=0;orthogonalLoop=1;jettySize=auto;html=1;exitX=1;exitY=0.5;exitDx=0;exitDy=0;strokeColor=#000000;dashed=1;dashPattern=1 2;" edge="1" parent="1" source="3WDMfEi2wOY3E3-ZAiuZ-81">
          <mxGeometry relative="1" as="geometry">
            <mxPoint x="300" y="850" as="targetPoint" />
            <mxPoint x="1040" y="1092.5" as="sourcePoint" />
            <Array as="points">
              <mxPoint x="1090" y="1067" />
              <mxPoint x="1090" y="1293" />
              <mxPoint x="300" y="1293" />
            </Array>
          </mxGeometry>
        </mxCell>
        <mxCell id="3WDMfEi2wOY3E3-ZAiuZ-94" value="" style="endArrow=none;dashed=1;html=1;dashPattern=1 2;strokeColor=#000000;entryX=1;entryY=0.5;entryDx=0;entryDy=0;" edge="1" parent="1">
          <mxGeometry width="50" height="50" relative="1" as="geometry">
            <mxPoint x="1090" y="1207" as="sourcePoint" />
            <mxPoint x="1055" y="1207" as="targetPoint" />
          </mxGeometry>
        </mxCell>
        <mxCell id="3WDMfEi2wOY3E3-ZAiuZ-102" value="" style="endArrow=classic;html=1;strokeColor=#000000;strokeWidth=2;exitX=1;exitY=0.5;exitDx=0;exitDy=0;entryX=0;entryY=0.5;entryDx=0;entryDy=0;" edge="1" parent="1" source="3WDMfEi2wOY3E3-ZAiuZ-85" target="3WDMfEi2wOY3E3-ZAiuZ-105">
          <mxGeometry width="50" height="50" relative="1" as="geometry">
            <mxPoint x="1155" y="1168" as="sourcePoint" />
            <mxPoint x="1245" y="1068" as="targetPoint" />
            <Array as="points">
              <mxPoint x="1175" y="1137" />
              <mxPoint x="1175" y="1068" />
            </Array>
          </mxGeometry>
        </mxCell>
        <mxCell id="3WDMfEi2wOY3E3-ZAiuZ-104" value="" style="endArrow=classic;html=1;strokeColor=#000000;strokeWidth=2;exitX=1;exitY=0.5;exitDx=0;exitDy=0;entryX=0;entryY=0.5;entryDx=0;entryDy=0;" edge="1" parent="1" source="3WDMfEi2wOY3E3-ZAiuZ-80" target="3WDMfEi2wOY3E3-ZAiuZ-105">
          <mxGeometry width="50" height="50" relative="1" as="geometry">
            <mxPoint x="1065" y="1147" as="sourcePoint" />
            <mxPoint x="1245" y="1068" as="targetPoint" />
            <Array as="points">
              <mxPoint x="1175" y="997" />
              <mxPoint x="1175" y="1068" />
            </Array>
          </mxGeometry>
        </mxCell>
        <mxCell id="3WDMfEi2wOY3E3-ZAiuZ-105" value="人工处理完成量" style="shape=cylinder;whiteSpace=wrap;html=1;boundedLbl=1;backgroundOutline=1;strokeWidth=2;fontStyle=1" vertex="1" parent="1">
          <mxGeometry x="1345" y="1034.5" width="100" height="65" as="geometry" />
        </mxCell>
        <mxCell id="3WDMfEi2wOY3E3-ZAiuZ-106" value="&lt;font style=&quot;font-size: 15px&quot;&gt;数据输出&lt;/font&gt;" style="text;html=1;strokeColor=#9673a6;fillColor=#e1d5e7;align=center;verticalAlign=middle;whiteSpace=wrap;rounded=0;" vertex="1" parent="1">
          <mxGeometry x="1235" y="1034.5" width="75" height="20" as="geometry" />
        </mxCell>
        <mxCell id="3WDMfEi2wOY3E3-ZAiuZ-108" value="未推入平台任务" style="strokeWidth=2;html=1;shape=mxgraph.flowchart.delay;whiteSpace=wrap;fontStyle=1" vertex="1" parent="1">
          <mxGeometry x="180" y="197.5" width="100" height="50" as="geometry" />
        </mxCell>
      </root>
    </mxGraphModel>
  </diagram>
</mxfile>
